<?xml version="1.0" encoding="iso-8859-1"?>
<!-- Generator: Adobe Illustrator 19.0.0, SVG Export Plug-In . SVG Version: 6.00 Build 0)  -->
<svg version="1.1" id="Capa_1" xmlns="http://www.w3.org/2000/svg" xmlns:xlink="http://www.w3.org/1999/xlink" x="0px" y="0px"
	 viewBox="0 0 470 470" style="enable-background:new 0 0 470 470;" xml:space="preserve">
<path style="fill:#FFFFFF;" d="M189.6,394.807v-236.32c1.052-25.03,22.195-44.467,47.225-43.415
	c23.556,0.99,42.426,19.86,43.416,43.415v236.32H189.6z"/>
<path style="fill:#FFA757;" d="M49.04,394.807v-196.4c1.052-25.03,22.195-44.467,47.225-43.415
	c23.555,0.99,42.426,19.86,43.415,43.415v196.4H49.04z"/>
<path style="fill:#FFE05F;" d="M330.16,394.807v-276.32c1.052-25.03,22.195-44.467,47.224-43.416
	c23.556,0.99,42.426,19.86,43.416,43.416v276.32H330.16z"/>
<path style="fill:#3F342B;" d="M462,386.807h-33.12v-268.32c-1.141-29.448-25.938-52.395-55.386-51.254
	c-27.848,1.079-50.175,23.406-51.254,51.254v268.32h-33.92v-228.32c-1.141-29.448-25.938-52.395-55.386-51.254
	c-27.848,1.079-50.175,23.406-51.254,51.254v228.32h-33.92v-188.4c-1.141-29.448-25.938-52.395-55.386-51.254
	c-27.848,1.079-50.175,23.406-51.254,51.254v188.4H8c-4.418,0-8,3.582-8,8s3.582,8,8,8h454c4.418,0,8-3.582,8-8
	S466.418,386.807,462,386.807L462,386.807z M131.76,386.807H57.04v-188.4c0.955-20.611,18.437-36.546,39.048-35.592
	c19.275,0.893,34.699,16.317,35.592,35.592L131.76,386.807z M272.32,386.807H197.6v-228.32
	c0.954-20.611,18.437-36.546,39.048-35.592c19.275,0.893,34.699,16.317,35.592,35.592L272.32,386.807z M412.88,386.807h-74.72
	v-268.32c0.954-20.611,18.437-36.546,39.048-35.592c19.275,0.893,34.699,16.317,35.592,35.592L412.88,386.807z"/>
<g>
</g>
<g>
</g>
<g>
</g>
<g>
</g>
<g>
</g>
<g>
</g>
<g>
</g>
<g>
</g>
<g>
</g>
<g>
</g>
<g>
</g>
<g>
</g>
<g>
</g>
<g>
</g>
<g>
</g>
</svg>
