<?xml version="1.0" encoding="iso-8859-1"?>
<!-- Generator: Adobe Illustrator 19.0.0, SVG Export Plug-In . SVG Version: 6.00 Build 0)  -->
<svg version="1.1" id="Capa_1" xmlns="http://www.w3.org/2000/svg" xmlns:xlink="http://www.w3.org/1999/xlink" x="0px" y="0px"
	 viewBox="0 0 480 480" style="enable-background:new 0 0 480 480;" xml:space="preserve">
<polygon style="fill:#FE946F;" points="320,367.997 240,391.997 168,367.997 104,327.997 160,383.997 240,415.997 336,399.997 
	360,399.997 360,367.997 "/>
<path style="fill:#FFB398;" d="M240,391.997l80-24h40v-72H240c0,5.858,1.689,11.277,4.438,16H304v16v24l-64,8l-72-16l-16-16
	c-13.255-13.255-34.745-13.255-48,0l64,40L240,391.997z"/>
<path style="fill:#FE946F;" d="M244.438,311.997c5.543,9.524,15.747,16,27.562,16h32v-16H244.438z"/>
<rect x="360" y="295.997" style="fill:#3F708D;" width="72" height="72"/>
<rect x="360" y="367.997" style="fill:#2E5166;" width="72" height="32"/>
<path style="fill:#F88756;" d="M232.036,64.767c-15.533,3.001-28.087,15.555-31.213,31.063
	c-3.273,16.232,3.512,31.394,15.177,40.167v24h-40c-8.836,0-16,7.163-16,16v88h80V64.053
	C237.392,64.052,234.738,64.245,232.036,64.767z"/>
<path style="fill:#E15D2D;" d="M320,175.997c0-8.837-7.164-16-16-16h-40v-24c9.68-7.28,16-18.96,16-32
	c0-22.076-17.926-39.937-40-39.943v199.943h80V175.997z"/>
<path style="fill:#3F708D;" d="M72.036,96.767c-15.533,3.001-28.087,15.555-31.213,31.063C37.55,144.062,44.335,159.224,56,167.997
	v24H24c-8.836,0-16,7.163-16,16v56h72V96.053C77.392,96.052,74.738,96.245,72.036,96.767z"/>
<path style="fill:#2E5166;" d="M136,191.997h-32v-24c9.68-7.28,16-18.96,16-32c0-22.076-17.926-39.937-40-39.943v167.943h56V191.997
	z"/>
<path style="fill:#3F708D;" d="M360,135.997c0,13.04,6.32,24.72,16,32v24h-32v72h56V96.053C377.926,96.06,360,113.92,360,135.997z"
	/>
<path style="fill:#2E5166;" d="M472,207.997c0-8.837-7.164-16-16-16h-32v-24c11.665-8.773,18.45-23.935,15.177-40.167
	c-3.126-15.508-15.681-28.062-31.213-31.063c-2.702-0.522-5.355-0.715-7.964-0.714v167.943h72V207.997z"/>
<path d="M160,271.997h160c4.418,0,8-3.582,8-8v-88c0-13.234-10.766-24-24-24h-32v-12.23c10.086-9.063,16-22.148,16-35.77
	c0-14.371-6.367-27.867-17.469-37.031c-11.098-9.164-25.676-12.832-40.016-10.055c-18.676,3.613-33.762,18.617-37.535,37.336
	c-3.441,17.082,2.285,34.164,15.02,45.527v12.223h-32c-13.234,0-24,10.766-24,24v88C152,268.415,155.582,271.997,160,271.997z
	 M168,175.997c0-4.41,3.59-8,8-8h40c4.418,0,8-3.582,8-8v-24c0-2.516-1.184-4.883-3.191-6.395
	c-9.98-7.504-14.633-19.84-12.141-32.191c2.504-12.434,12.504-22.395,24.883-24.789c9.781-1.883,19.285,0.488,26.797,6.684
	C267.754,85.419,272,94.419,272,103.997c0,10-4.789,19.574-12.809,25.605c-2.008,1.512-3.191,3.879-3.191,6.395v24
	c0,4.418,3.582,8,8,8h40c4.41,0,8,3.59,8,8v80H168V175.997z"/>
<path d="M136,255.997H16v-48c0-4.41,3.59-8,8-8h32c4.418,0,8-3.582,8-8v-24c0-2.516-1.184-4.883-3.191-6.395
	c-9.98-7.504-14.633-19.84-12.141-32.191c2.504-12.434,12.504-22.395,24.883-24.789c9.789-1.887,19.289,0.488,26.797,6.684
	c7.406,6.113,11.652,15.113,11.652,24.691c0,10-4.789,19.574-12.809,25.605c-2.008,1.512-3.191,3.879-3.191,6.395v24
	c0,4.418,3.582,8,8,8h32v-16h-24v-12.23c10.086-9.063,16-22.148,16-35.77c0-14.371-6.367-27.867-17.469-37.031
	c-11.098-9.164-25.676-12.828-40.016-10.055c-18.676,3.613-33.762,18.617-37.535,37.336c-3.441,17.082,2.285,34.164,15.02,45.527
	v12.223H24c-13.234,0-24,10.766-24,24v56c0,4.418,3.582,8,8,8h128V255.997z"/>
<path d="M456,183.997h-24v-12.223c12.734-11.363,18.461-28.445,15.02-45.527c-3.773-18.719-18.859-33.723-37.539-37.336
	c-14.309-2.766-28.918,0.895-40.012,10.055C358.367,108.129,352,121.626,352,135.997c0,13.621,5.914,26.707,16,35.77v12.23h-24v16
	h32c4.418,0,8-3.582,8-8v-24c0-2.516-1.184-4.883-3.191-6.395c-8.02-6.031-12.809-15.605-12.809-25.605
	c0-9.578,4.246-18.578,11.652-24.691c7.508-6.195,17-8.574,26.793-6.684c12.383,2.395,22.383,12.355,24.887,24.789
	c2.492,12.352-2.16,24.688-12.141,32.191c-2.008,1.512-3.191,3.879-3.191,6.395v24c0,4.418,3.582,8,8,8h32c4.41,0,8,3.59,8,8v48H344
	v16h128c4.418,0,8-3.582,8-8v-56C480,194.762,469.234,183.997,456,183.997z"/>
<path d="M232,295.997c0,22.055,17.945,40,40,40h24v8.938l-55.617,6.953l-68.375-15.195l-14.352-14.352
	c-16.352-16.352-42.961-16.352-59.313,0c-3.125,3.125-3.125,8.188,0,11.313l56,56c0.766,0.766,1.68,1.371,2.684,1.773l80,32
	c0.949,0.379,1.957,0.57,2.973,0.57c0.438,0,0.879-0.035,1.316-0.109l95.344-15.891H432v-16h-64v-88h64v-16H240
	C235.582,287.997,232,291.579,232,295.997z M352,303.997v88h-16c-0.441,0-0.879,0.035-1.316,0.109l-93.789,15.633l-76.398-30.559
	l-48.289-48.293c9.746-4.969,21.992-3.375,30.137,4.766l16,16c1.074,1.078,2.434,1.824,3.922,2.152l72,16
	c0.898,0.199,1.824,0.25,2.727,0.129l64-8c4.004-0.5,7.008-3.902,7.008-7.938v-24c0-4.418-3.582-8-8-8h-32
	c-10.43,0-19.328-6.688-22.629-16H352z"/>
<g>
</g>
<g>
</g>
<g>
</g>
<g>
</g>
<g>
</g>
<g>
</g>
<g>
</g>
<g>
</g>
<g>
</g>
<g>
</g>
<g>
</g>
<g>
</g>
<g>
</g>
<g>
</g>
<g>
</g>
</svg>
