<?xml version="1.0" encoding="iso-8859-1"?>
<!-- Generator: Adobe Illustrator 19.0.0, SVG Export Plug-In . SVG Version: 6.00 Build 0)  -->
<svg version="1.1" id="Capa_1" xmlns="http://www.w3.org/2000/svg" xmlns:xlink="http://www.w3.org/1999/xlink" x="0px" y="0px"
	 viewBox="0 0 512 512" style="enable-background:new 0 0 512 512;" xml:space="preserve">
<g>
	<g>
		<path d="M456.078,280.819c8.896-10.13,14.307-23.391,14.307-37.9c0-31.713-25.801-57.514-57.514-57.514
			s-57.514,25.801-57.514,57.514c0,14.485,5.394,27.725,14.263,37.848c-4.985,2.421-9.776,5.267-14.324,8.527
			c-13.222-16.232-30.334-29.175-49.905-37.389c14.001-13.17,22.769-31.843,22.769-52.537c0-39.789-32.371-72.16-72.161-72.16
			c-39.79,0-72.161,32.371-72.161,72.16c0,20.694,8.769,39.367,22.77,52.537c-19.574,8.216-36.689,21.161-49.912,37.398
			c-4.548-3.258-9.338-6.106-14.324-8.527c8.873-10.124,14.27-23.368,14.27-37.857c0-31.713-25.801-57.514-57.514-57.514
			c-31.713,0-57.514,25.801-57.514,57.514c0,14.509,5.411,27.77,14.307,37.9C22.85,296.902,0,330.843,0,370.024
			c0,8.157,6.613,14.769,14.769,14.769h127.966h226.529h127.967c8.157,0,14.769-6.613,14.769-14.769
			C512,330.843,489.15,296.902,456.078,280.819z M99.129,214.943c15.426,0,27.976,12.55,27.976,27.976s-12.55,27.976-27.976,27.976
			s-27.976-12.55-27.976-27.976S83.703,214.943,99.129,214.943z M128.822,355.255H31.116c6.79-31.303,34.707-54.821,68.013-54.821
			c15.213,0,29.677,4.855,41.635,13.822C134.618,326.906,130.5,340.714,128.822,355.255z M256,156.744
			c23.502,0,42.622,19.12,42.622,42.622s-19.12,42.623-42.622,42.623c-23.503,0-42.623-19.12-42.623-42.623
			C213.377,175.865,232.497,156.744,256,156.744z M158.609,355.255c7.148-47.329,48.099-83.727,97.391-83.727
			s90.243,36.396,97.39,83.727H158.609z M412.871,214.943c15.426,0,27.976,12.55,27.976,27.976s-12.55,27.976-27.976,27.976
			s-27.976-12.55-27.976-27.976S397.445,214.943,412.871,214.943z M383.177,355.255L383.177,355.255
			c-1.679-14.543-5.796-28.353-11.944-41.004c11.952-8.968,26.402-13.817,41.639-13.817c33.307,0,61.223,23.519,68.013,54.821
			H383.177z"/>
	</g>
</g>
<g>
</g>
<g>
</g>
<g>
</g>
<g>
</g>
<g>
</g>
<g>
</g>
<g>
</g>
<g>
</g>
<g>
</g>
<g>
</g>
<g>
</g>
<g>
</g>
<g>
</g>
<g>
</g>
<g>
</g>
</svg>
